<svg width="259" height="166" viewBox="0 0 259 166" fill="none" xmlns="http://www.w3.org/2000/svg">
<g filter="url(#filter0_bd_1_412)">
<path fill-rule="evenodd" clip-rule="evenodd" d="M57.4249 31.7236C46.9391 31.324 38.1147 39.5004 37.7151 49.9862L36.1155 91.9557C35.7159 102.442 43.8923 111.266 54.3781 111.666L120.88 114.2C120.941 114.281 121.009 114.359 121.085 114.434L131.151 124.365C131.888 125.092 133.058 125.137 133.848 124.468L144.64 115.332C144.721 115.263 144.795 115.19 144.862 115.114L201.371 117.268C211.857 117.668 220.682 109.491 221.081 99.0054L222.681 57.0358C223.08 46.55 214.904 37.7256 204.418 37.326L57.4249 31.7236Z" fill="white" fill-opacity="0.85" shape-rendering="crispEdges"/>
</g>
<path d="M75.1072 92.6091C74.3704 92.5811 73.6992 92.4247 73.0936 92.1401C72.4884 91.8462 71.9663 91.4527 71.5274 90.9596C71.0983 90.4576 70.7702 89.8753 70.5433 89.2129C70.3163 88.5504 70.2178 87.8275 70.2476 87.044C70.2775 86.2606 70.4308 85.5472 70.7075 84.904C70.9842 84.2607 71.3556 83.7051 71.8218 83.2372C72.2973 82.7696 72.8478 82.417 73.4733 82.1793C74.0991 81.9323 74.7805 81.8229 75.5172 81.8509C76.2261 81.878 76.8555 82.028 77.4055 82.3012C77.9648 82.5747 78.428 82.9192 78.7951 83.3349C79.1719 83.7415 79.4359 84.1672 79.587 84.612L78.5202 85.0336C78.2822 84.4174 77.8996 83.9172 77.3725 83.5328C76.8551 83.1395 76.2234 82.9286 75.4773 82.9002C74.7125 82.871 74.0247 83.027 73.4139 83.3679C72.8032 83.7089 72.3175 84.1995 71.9568 84.8395C71.5966 85.4703 71.3999 86.2193 71.3668 87.0867C71.3341 87.9447 71.4732 88.7066 71.7841 89.3722C72.095 90.0379 72.5419 90.564 73.125 90.9504C73.7083 91.3276 74.3824 91.5308 75.1472 91.5599C75.8933 91.5883 76.5391 91.4308 77.0846 91.0873C77.6394 90.7442 78.0589 90.2745 78.3432 89.6783L79.3748 90.1799C79.1906 90.6025 78.895 91.0069 78.488 91.393C78.0907 91.7702 77.6028 92.0738 77.0242 92.3039C76.455 92.5344 75.816 92.6362 75.1072 92.6091ZM84.5012 92.9672C83.7924 92.9402 83.1552 92.7478 82.5898 92.39C82.0247 92.0228 81.5808 91.5389 81.2581 90.9382C80.9451 90.3285 80.803 89.6459 80.8318 88.8905C80.8602 88.1443 81.0535 87.4839 81.4117 86.9091C81.7698 86.3343 82.2397 85.8899 82.8215 85.5758C83.4129 85.2528 84.0723 85.1051 84.7998 85.1329C85.5272 85.1606 86.169 85.3532 86.7252 85.7106C87.2906 86.0684 87.7254 86.5473 88.0294 87.1473C88.3428 87.7477 88.485 88.4256 88.4562 89.1811C88.4271 89.9458 88.2286 90.6201 87.8608 91.2038C87.4933 91.7783 87.014 92.2223 86.423 92.5361C85.8413 92.8501 85.2007 92.9938 84.5012 92.9672ZM84.5412 91.9179C85.0448 91.9371 85.5019 91.8285 85.9126 91.5919C86.3325 91.3558 86.6675 91.0229 86.9173 90.5935C87.1765 90.1644 87.3164 89.6793 87.3371 89.1384C87.3577 88.5975 87.2549 88.1079 87.0288 87.6696C86.812 87.2317 86.5032 86.879 86.1024 86.6115C85.711 86.3444 85.2634 86.2013 84.7598 86.1821C84.2561 86.1629 83.7943 86.2714 83.3744 86.5076C82.9637 86.7441 82.629 87.0723 82.3702 87.492C82.1113 87.9118 81.9716 88.3922 81.951 88.9331C81.9304 89.4741 82.0329 89.9683 82.2587 90.4159C82.4845 90.8635 82.7931 91.2209 83.1846 91.488C83.5853 91.7554 84.0375 91.8987 84.5412 91.9179ZM90.2456 89.7536L90.2829 88.7743L95.1793 88.9609L95.142 89.9402L90.2456 89.7536ZM97.2848 93.2863L97.682 82.8638L104.117 83.1091L104.077 84.1583L98.7612 83.9557L98.6231 87.5791L103.52 87.7657L103.48 88.815L98.5831 88.6283L98.404 93.3289L97.2848 93.2863ZM108.492 93.8815C107.783 93.8545 107.146 93.6621 106.58 93.3043C106.015 92.9372 105.571 92.4533 105.248 91.8525C104.935 91.2428 104.793 90.5603 104.822 89.8048C104.851 89.0587 105.044 88.3982 105.402 87.8235C105.76 87.2487 106.23 86.8043 106.812 86.4902C107.403 86.1671 108.063 86.0195 108.79 86.0472C109.518 86.0749 110.159 86.2675 110.716 86.625C111.281 86.9828 111.716 87.4617 112.02 88.0617C112.333 88.662 112.475 89.34 112.447 90.0954C112.417 90.8602 112.219 91.5344 111.851 92.1182C111.484 92.6926 111.004 93.1367 110.413 93.4504C109.832 93.7645 109.191 93.9082 108.492 93.8815ZM108.532 92.8323C109.035 92.8515 109.492 92.7428 109.903 92.5063C110.323 92.2701 110.658 91.9373 110.908 91.5078C111.167 91.0787 111.307 90.5937 111.327 90.0527C111.348 89.5118 111.245 89.0222 111.019 88.5839C110.802 88.146 110.494 87.7934 110.093 87.5259C109.701 87.2588 109.254 87.1156 108.75 87.0964C108.247 87.0773 107.785 87.1857 107.365 87.4219C106.954 87.6585 106.619 87.9866 106.361 88.4064C106.102 88.8262 105.962 89.3065 105.941 89.8475C105.921 90.3884 106.023 90.8827 106.249 91.3303C106.475 91.7779 106.784 92.1352 107.175 92.4023C107.576 92.6698 108.028 92.8131 108.532 92.8323ZM116.805 94.1984C116.283 94.1785 115.812 94.0391 115.392 93.7803C114.973 93.5121 114.646 93.154 114.41 92.7061C114.185 92.2492 114.083 91.7316 114.105 91.1533L114.286 86.4248L115.335 86.4648L115.159 91.0674C115.144 91.4685 115.21 91.8259 115.357 92.1397C115.513 92.4446 115.733 92.6864 116.016 92.8653C116.308 93.0446 116.645 93.1415 117.027 93.1561C117.41 93.1707 117.753 93.0997 118.058 92.9432C118.363 92.7774 118.606 92.5391 118.786 92.2284C118.966 91.9084 119.065 91.5245 119.082 91.0768L119.252 86.6141L120.301 86.6541L120.015 94.1526L118.966 94.1126L119.022 92.6577L119.257 92.7227C119.062 93.2009 118.744 93.5718 118.304 93.8352C117.865 94.0987 117.365 94.2197 116.805 94.1984ZM122.173 94.2349L122.459 86.7363L123.508 86.7763L123.453 88.2312L123.217 88.1662C123.422 87.6883 123.74 87.3175 124.17 87.0537C124.61 86.7902 125.11 86.6692 125.669 86.6905C126.201 86.7108 126.672 86.8502 127.082 87.1086C127.502 87.3675 127.825 87.716 128.051 88.1543C128.287 88.5836 128.395 89.064 128.374 89.5957L128.189 94.4641L127.14 94.4241L127.31 89.9614C127.327 89.5044 127.258 89.1141 127.102 88.7906C126.956 88.4675 126.736 88.2163 126.444 88.037C126.162 87.8488 125.83 87.7474 125.447 87.7328C125.065 87.7183 124.721 87.7939 124.416 87.9597C124.111 88.1162 123.868 88.3545 123.688 88.6745C123.508 88.9852 123.41 89.3644 123.393 89.8121L123.223 94.2748L122.173 94.2349ZM133.572 94.8374C132.872 94.8108 132.249 94.6189 131.703 94.2618C131.156 93.8954 130.731 93.4122 130.427 92.8122C130.132 92.2032 130 91.5256 130.028 90.7795C130.057 90.024 130.241 89.3586 130.58 88.7831C130.929 88.208 131.385 87.763 131.948 87.4482C132.521 87.1245 133.162 86.9761 133.871 87.0031C134.514 87.0276 135.082 87.1894 135.575 87.4884C136.068 87.7874 136.45 88.1802 136.721 88.6669L136.542 88.9543L136.724 84.1837L137.773 84.2237L137.37 94.814L136.32 94.774L136.384 93.0953L136.546 93.2555C136.265 93.7865 135.857 94.1913 135.323 94.4698C134.799 94.7394 134.216 94.8619 133.572 94.8374ZM133.668 93.7903C134.172 93.8095 134.629 93.7008 135.039 93.4643C135.459 93.2281 135.794 92.9 136.044 92.4798C136.303 92.0507 136.443 91.5657 136.463 91.0248C136.484 90.4838 136.381 89.9942 136.155 89.556C135.939 89.1087 135.63 88.7514 135.229 88.4839C134.838 88.2168 134.39 88.0737 133.887 88.0545C133.392 88.0356 132.94 88.1445 132.529 88.381C132.118 88.6175 131.788 88.9459 131.539 89.366C131.299 89.7865 131.168 90.2719 131.147 90.8221C131.127 91.3631 131.22 91.857 131.427 92.3039C131.644 92.7418 131.943 93.0941 132.325 93.3609C132.717 93.628 133.164 93.7711 133.668 93.7903ZM142.931 95.1941C142.232 95.1675 141.604 94.9754 141.048 94.618C140.501 94.2516 140.076 93.7637 139.772 93.1543C139.469 92.545 139.331 91.8626 139.36 91.1072C139.389 90.3517 139.573 89.6909 139.912 89.1247C140.252 88.5492 140.698 88.1039 141.252 87.7888C141.815 87.474 142.437 87.3296 143.118 87.3555C143.659 87.3762 144.135 87.4971 144.547 87.7182C144.969 87.9304 145.322 88.2148 145.607 88.5712C145.893 88.9184 146.107 89.3095 146.249 89.7445C146.392 90.1703 146.454 90.607 146.437 91.0547C146.434 91.1479 146.425 91.255 146.411 91.3759C146.397 91.4874 146.379 91.6035 146.356 91.724L140.018 91.4825L140.056 90.5032L145.791 90.7218L145.272 91.1223C145.375 90.6126 145.332 90.1532 145.142 89.7444C144.962 89.3265 144.69 88.9939 144.326 88.7466C143.962 88.4898 143.547 88.3526 143.08 88.3348C142.614 88.3171 142.176 88.4218 141.766 88.649C141.365 88.8765 141.044 89.2052 140.803 89.635C140.563 90.0555 140.455 90.5651 140.479 91.1638C140.409 91.7589 140.483 92.2848 140.699 92.7413C140.925 93.1889 141.238 93.5418 141.639 93.7999C142.05 94.0584 142.493 94.1967 142.968 94.2148C143.519 94.2358 143.985 94.1228 144.368 93.8759C144.751 93.629 145.067 93.3141 145.315 92.9313L146.192 93.441C146.03 93.7711 145.79 94.0748 145.471 94.3522C145.153 94.6203 144.775 94.8348 144.34 94.9956C143.914 95.1475 143.444 95.2137 142.931 95.1941ZM148.131 95.2242L148.417 87.7256L149.466 87.7656L149.419 88.9967L149.286 88.8095C149.477 88.4619 149.753 88.1922 150.116 88.0005C150.487 87.8092 150.929 87.7233 151.442 87.7429L151.918 87.761L151.878 88.8102L151.22 88.7852C150.68 88.7646 150.239 88.9159 149.9 89.2392C149.561 89.5625 149.38 90.032 149.356 90.6475L149.18 95.2642L148.131 95.2242ZM152.271 97.2033L152.289 96.7136C152.572 96.6497 152.783 96.5129 152.921 96.3034C153.06 96.0939 153.137 95.7979 153.151 95.4155L152.62 95.3953L152.678 93.8564L153.797 93.899L153.753 95.0742C153.73 95.6804 153.595 96.1609 153.347 96.5158C153.1 96.88 152.741 97.1091 152.271 97.2033ZM163.35 95.9723C162.613 95.9443 161.942 95.7879 161.336 95.5033C160.731 95.2094 160.209 94.8159 159.77 94.3228C159.341 93.8208 159.013 93.2385 158.786 92.5761C158.559 91.9136 158.46 91.1907 158.49 90.4072C158.52 89.6238 158.673 88.9104 158.95 88.2672C159.227 87.6239 159.598 87.0683 160.064 86.6004C160.54 86.1328 161.09 85.7802 161.716 85.5425C162.342 85.2955 163.023 85.1861 163.76 85.2142C164.469 85.2412 165.098 85.3912 165.648 85.6644C166.207 85.9379 166.671 86.2825 167.038 86.6981C167.414 87.1047 167.678 87.5304 167.83 87.9752L166.763 88.3968C166.525 87.7806 166.142 87.2804 165.615 86.896C165.098 86.5027 164.466 86.2918 163.72 86.2634C162.955 86.2342 162.267 86.3902 161.657 86.7311C161.046 87.0721 160.56 87.5627 160.199 88.2027C159.839 88.8335 159.642 89.5825 159.609 90.4499C159.577 91.3079 159.716 92.0698 160.027 92.7354C160.338 93.4011 160.784 93.9272 161.368 94.3136C161.951 94.6908 162.625 94.894 163.39 94.9231C164.136 94.9515 164.782 94.794 165.327 94.4505C165.882 94.1074 166.302 93.6377 166.586 93.0415L167.617 93.5431C167.433 93.9657 167.138 94.3701 166.731 94.7562C166.333 95.1334 165.845 95.437 165.267 95.6671C164.698 95.8976 164.059 95.9994 163.35 95.9723ZM169.529 96.0397L169.926 85.6173L176.642 85.8732L176.602 86.9225L171.006 86.7092L170.868 90.3326L176.184 90.5352L176.144 91.5844L170.828 91.3818L170.688 95.0332L176.284 95.2464L176.244 96.2957L169.529 96.0397ZM182.999 96.7212C182.272 96.6935 181.596 96.537 180.972 96.2517C180.357 95.9574 179.821 95.5634 179.364 95.0696C178.906 94.5665 178.555 93.9833 178.309 93.3202C178.064 92.6477 177.957 91.9197 177.986 91.1363C178.016 90.3528 178.179 89.6399 178.474 88.9973C178.77 88.3454 179.165 87.7907 179.658 87.3332C180.153 86.8663 180.717 86.5143 181.352 86.2769C181.996 86.04 182.682 85.9353 183.409 85.9631C184.137 85.9908 184.808 86.1518 185.422 86.4461C186.047 86.7314 186.587 87.1256 187.045 87.6287C187.502 88.1225 187.854 88.701 188.099 89.3641C188.345 90.0273 188.453 90.7506 188.423 91.534C188.393 92.3175 188.23 93.0351 187.934 93.687C187.639 94.3296 187.244 94.8843 186.75 95.3511C186.256 95.8086 185.687 96.1605 185.043 96.4068C184.408 96.6442 183.727 96.749 182.999 96.7212ZM183.039 95.672C183.646 95.6951 184.2 95.6042 184.703 95.3992C185.215 95.1945 185.661 94.8986 186.04 94.5114C186.419 94.1243 186.716 93.6733 186.932 93.1584C187.157 92.644 187.281 92.0883 187.304 91.4914C187.326 90.9038 187.245 90.345 187.059 89.8149C186.883 89.2851 186.621 88.8128 186.273 88.3979C185.924 87.983 185.502 87.654 185.007 87.411C184.522 87.1683 183.976 87.0354 183.369 87.0123C182.763 86.9892 182.204 87.08 181.692 87.2846C181.189 87.4896 180.748 87.7857 180.369 88.1729C179.99 88.56 179.688 89.0109 179.463 89.5253C179.247 90.0402 179.128 90.5914 179.106 91.1789C179.083 91.7758 179.159 92.3392 179.335 92.8689C179.521 93.399 179.787 93.8715 180.136 94.2864C180.484 94.7013 180.906 95.0303 181.401 95.2733C181.896 95.5164 182.442 95.6493 183.039 95.672Z" fill="#71717A"/>
<path d="M81.5999 66.6696L81.667 64.9109L82.3545 64.9371C82.8874 64.9574 83.3197 64.8191 83.6512 64.5222C83.9832 64.2146 84.1593 63.7943 84.1796 63.2614L84.5001 54.8515L86.3708 54.9228L86.0527 63.2687C86.0251 63.9935 85.8519 64.6167 85.5331 65.1383C85.225 65.6603 84.7881 66.0599 84.2225 66.3372C83.6679 66.6043 83.0229 66.7238 82.2874 66.6958L81.5999 66.6696ZM92.2353 67.2671C91.3719 67.2342 90.612 67.0077 89.9555 66.5878C89.3101 66.1575 88.8138 65.5942 88.4668 64.8978C88.1201 64.1908 87.963 63.4109 87.9955 62.5582C88.0288 61.6842 88.2448 60.9185 88.6435 60.2612C89.0528 59.6043 89.5845 59.0962 90.2387 58.7369C90.8933 58.3669 91.6256 58.1973 92.4357 58.2282C93.0859 58.2529 93.6625 58.387 94.1656 58.6303C94.6687 58.8737 95.0886 59.1992 95.4253 59.607C95.7624 60.0042 96.0121 60.4567 96.1742 60.9645C96.3469 61.4728 96.4226 62.0094 96.401 62.5743C96.3957 62.7129 96.3849 62.8566 96.3686 63.0054C96.3522 63.1542 96.3256 63.292 96.2888 63.4187L89.3978 63.156L89.4526 61.7171L95.3204 61.9407L94.432 62.5633C94.5585 62.0451 94.5389 61.58 94.3731 61.1681C94.2184 60.7459 93.9643 60.4106 93.6109 60.1623C93.2685 59.9038 92.8574 59.7653 92.3778 59.7471C91.8981 59.7288 91.4671 59.8351 91.0847 60.066C90.7027 60.2863 90.4019 60.6164 90.1823 61.0564C89.9631 61.4857 89.8629 62.0156 89.8816 62.6461C89.8059 63.2303 89.8664 63.745 90.0629 64.1901C90.2701 64.6357 90.5662 64.9885 90.9512 65.2487C91.3469 65.5093 91.8006 65.6494 92.3122 65.6689C92.8345 65.6888 93.2813 65.5884 93.6526 65.3677C94.0346 65.1474 94.3393 64.8548 94.5667 64.4899L96.0102 65.2654C95.8243 65.6639 95.5438 66.0215 95.1688 66.3381C94.8048 66.6445 94.3687 66.8841 93.8605 67.0568C93.3632 67.2193 92.8215 67.2894 92.2353 67.2671ZM97.9869 67.2942L98.3166 58.6444L100.043 58.7103L99.9787 60.405L99.7794 60.1733C100.013 59.6378 100.37 59.2404 100.85 58.9812C101.33 58.7112 101.879 58.5881 102.497 58.6116C103.136 58.636 103.696 58.7961 104.176 59.0919C104.656 59.3877 105.025 59.7861 105.283 60.287C105.542 60.7878 105.659 61.358 105.634 61.9976L105.422 67.5775L103.631 67.5093L103.825 62.409C103.842 61.972 103.776 61.6012 103.627 61.2966C103.479 60.9814 103.259 60.7382 102.967 60.5669C102.685 60.3854 102.358 60.2876 101.985 60.2733C101.612 60.2591 101.273 60.3316 100.968 60.4908C100.674 60.6397 100.442 60.8656 100.27 61.1687C100.098 61.4717 100.004 61.8364 99.988 62.2627L99.7936 67.363L97.9869 67.2942ZM107.355 67.6512L107.685 59.0015L109.412 59.0673L109.347 60.7621L109.148 60.5303C109.382 59.9948 109.738 59.5975 110.218 59.3382C110.698 59.0683 111.247 58.9451 111.865 58.9687C112.505 58.9931 113.064 59.1531 113.544 59.449C114.024 59.7448 114.393 60.1431 114.651 60.644C114.91 61.1449 115.027 61.7151 115.002 62.3546L114.79 67.9346L112.999 67.8663L113.193 62.766C113.21 62.329 113.144 61.9582 112.996 61.6537C112.848 61.3385 112.627 61.0953 112.335 60.924C112.054 60.7425 111.726 60.6446 111.353 60.6304C110.98 60.6162 110.641 60.6887 110.336 60.8478C110.043 60.9967 109.81 61.2227 109.638 61.5257C109.466 61.8287 109.372 62.1934 109.356 62.6198L109.162 67.7201L107.355 67.6512ZM117.2 71.565C116.987 71.5569 116.774 71.5274 116.563 71.4767C116.362 71.437 116.177 71.3766 116.009 71.2955L116.068 69.7446C116.195 69.7814 116.349 69.814 116.529 69.8422C116.709 69.8811 116.884 69.9038 117.055 69.9103C117.556 69.9294 117.928 69.8315 118.171 69.6166C118.424 69.4127 118.655 69.0853 118.865 68.6343L119.49 67.3452L119.4 68.8628L116.017 59.3191L117.952 59.3928L120.443 66.709L119.788 66.684L122.813 59.5781L124.763 59.6524L120.576 69.0998C120.354 69.6037 120.081 70.0416 119.758 70.4136C119.444 70.7966 119.076 71.0868 118.652 71.2841C118.238 71.4925 117.754 71.5861 117.2 71.565ZM130.863 68.5472L128.039 56.5109L130.038 56.5871L132.299 67.0007L131.803 66.9819L134.946 56.7741L136.913 56.8491L139.27 67.2664L138.758 67.2469L141.821 57.0362L143.804 57.1117L140.088 68.8988L137.962 68.8177L135.583 58.5597L136.142 58.581L132.974 68.6276L130.863 68.5472ZM144.578 69.0699L144.908 60.4202L146.714 60.489L146.385 69.1388L144.578 69.0699ZM144.953 59.237L145.032 57.1585L146.839 57.2274L146.76 59.3059L144.953 59.237ZM148.497 69.2193L148.958 57.1161L150.765 57.1849L150.304 69.2881L148.497 69.2193ZM155.607 69.6824C154.722 69.6486 153.952 69.4005 153.297 68.9379C152.653 68.4757 152.212 67.8718 151.973 67.1261L153.389 66.5236C153.605 67.0229 153.91 67.4241 154.304 67.7273C154.709 68.031 155.162 68.1923 155.663 68.2114C156.089 68.2277 156.439 68.145 156.713 67.9633C156.987 67.7815 157.13 67.5255 157.142 67.1951C157.15 66.9819 157.098 66.8091 156.986 66.6767C156.874 66.5337 156.729 66.4161 156.551 66.3239C156.384 66.2321 156.21 66.1615 156.031 66.1119L154.686 65.6764C153.948 65.4348 153.401 65.0937 153.044 64.6531C152.698 64.2023 152.537 63.6891 152.558 63.1135C152.578 62.5912 152.729 62.1433 153.01 61.7697C153.291 61.3855 153.671 61.0957 154.148 60.9004C154.625 60.7051 155.157 60.6187 155.743 60.641C156.532 60.6711 157.228 60.8951 157.831 61.313C158.434 61.7203 158.851 62.2752 159.08 62.9778L157.664 63.5803C157.51 63.1581 157.25 62.8173 156.887 62.558C156.534 62.299 156.128 62.1608 155.67 62.1433C155.275 62.1283 154.957 62.2122 154.715 62.3951C154.474 62.5674 154.348 62.8028 154.336 63.1012C154.329 63.3037 154.375 63.4763 154.477 63.6189C154.578 63.7509 154.713 63.8628 154.88 63.9545C155.048 64.0357 155.221 64.1063 155.4 64.1665L156.792 64.6358C157.498 64.8656 158.035 65.2063 158.402 65.6579C158.769 66.0989 158.942 66.6178 158.919 67.2147C158.899 67.7264 158.744 68.1741 158.451 68.5579C158.17 68.9315 157.786 69.221 157.297 69.4266C156.81 69.6215 156.246 69.7067 155.607 69.6824ZM164.763 70.0314C163.932 69.9997 163.177 69.7734 162.5 69.3527C161.832 68.9323 161.309 68.3733 160.93 67.6757C160.551 66.9781 160.378 66.1976 160.411 65.3342C160.444 64.4602 160.676 63.6951 161.107 63.039C161.538 62.3723 162.102 61.8601 162.799 61.5024C163.496 61.134 164.266 60.9658 165.108 60.9979C165.96 61.0304 166.715 61.2567 167.371 61.6766C168.039 62.0864 168.557 62.6398 168.925 63.337C169.305 64.024 169.478 64.8045 169.445 65.6785C169.411 66.5525 169.179 67.3229 168.748 67.9896C168.317 68.6564 167.753 69.1739 167.056 69.5423C166.359 69.9 165.595 70.063 164.763 70.0314ZM164.827 68.3526C165.339 68.3721 165.797 68.2668 166.2 68.0366C166.604 67.8065 166.926 67.4825 167.166 67.0647C167.417 66.6366 167.553 66.1508 167.574 65.6072C167.595 65.0636 167.496 64.5741 167.278 64.1388C167.07 63.704 166.774 63.3564 166.389 63.0962C166.004 62.836 165.555 62.6962 165.044 62.6767C164.543 62.6576 164.085 62.7629 163.671 62.9926C163.267 63.2228 162.94 63.5465 162.689 63.964C162.449 64.3818 162.318 64.8625 162.298 65.4061C162.277 65.9497 162.37 66.4443 162.577 66.8898C162.796 67.3251 163.097 67.6729 163.482 67.9331C163.878 68.1936 164.326 68.3335 164.827 68.3526ZM171.043 70.0786L171.373 61.4288L173.1 61.4947L173.035 63.1894L172.836 62.9577C173.07 62.4222 173.426 62.0248 173.906 61.7656C174.386 61.4956 174.935 61.3725 175.553 61.396C176.193 61.4204 176.752 61.5805 177.232 61.8763C177.712 62.1721 178.081 62.5705 178.339 63.0714C178.598 63.5722 178.715 64.1424 178.691 64.782L178.478 70.3619L176.687 70.2937L176.882 65.1934C176.898 64.7564 176.832 64.3856 176.684 64.081C176.536 63.7658 176.315 63.5226 176.023 63.3513C175.742 63.1698 175.415 63.072 175.042 63.0578C174.668 63.0435 174.329 63.116 174.025 63.2752C173.731 63.4241 173.498 63.6501 173.326 63.9531C173.155 64.2561 173.061 64.6208 173.044 65.0471L172.85 70.1474L171.043 70.0786Z" fill="#090914"/>
<defs>
<filter id="filter0_bd_1_412" x="0.101456" y="0.709576" width="258.593" height="165.232" filterUnits="userSpaceOnUse" color-interpolation-filters="sRGB">
<feFlood flood-opacity="0" result="BackgroundImageFix"/>
<feGaussianBlur in="BackgroundImageFix" stdDeviation="9.5"/>
<feComposite in2="SourceAlpha" operator="in" result="effect1_backgroundBlur_1_412"/>
<feColorMatrix in="SourceAlpha" type="matrix" values="0 0 0 0 0 0 0 0 0 0 0 0 0 0 0 0 0 0 127 0" result="hardAlpha"/>
<feOffset dy="5"/>
<feGaussianBlur stdDeviation="18"/>
<feComposite in2="hardAlpha" operator="out"/>
<feColorMatrix type="matrix" values="0 0 0 0 0 0 0 0 0 0 0 0 0 0 0 0 0 0 0.12 0"/>
<feBlend mode="normal" in2="effect1_backgroundBlur_1_412" result="effect2_dropShadow_1_412"/>
<feBlend mode="normal" in="SourceGraphic" in2="effect2_dropShadow_1_412" result="shape"/>
</filter>
</defs>
</svg>
